<svg width="178" height="52" viewBox="0 0 178 52" fill="none" xmlns="http://www.w3.org/2000/svg">
<path d="M26.6922 0C11.95 0 0 11.6394 0 25.9984C0 40.3575 11.95 51.9969 26.6922 51.9969C41.4344 51.9969 53.3844 40.3575 53.3844 25.9984C53.3876 11.6394 41.4344 0 26.6922 0ZM38.9354 37.5012C38.4573 38.2681 37.4309 38.5071 36.6468 38.0414C30.377 34.3096 22.4879 33.4683 13.1963 35.536C12.3006 35.7347 11.4081 35.1882 11.2041 34.3189C11.0001 33.4465 11.5579 32.5772 12.4568 32.3785C22.6249 30.1152 31.346 31.0901 38.384 35.2752C39.1681 35.7378 39.4135 36.7375 38.9354 37.5012ZM42.2026 30.4195C41.6002 31.3726 40.3188 31.6738 39.3402 31.087C32.1683 26.7932 21.2288 25.5483 12.7405 28.0568C11.6408 28.3797 10.4773 27.7774 10.1427 26.7063C9.81115 25.6352 10.4327 24.5051 11.5292 24.1791C21.2256 21.3135 33.2776 22.7013 41.5141 27.6346C42.4959 28.2214 42.8019 29.4695 42.2026 30.4195ZM42.4831 23.049C33.88 18.0722 19.6861 17.6159 11.4718 20.0437C10.1522 20.4349 8.75927 19.7084 8.35765 18.4231C7.95921 17.1377 8.7019 15.781 10.0215 15.3898C19.4502 12.6018 35.1263 13.142 45.0299 18.867C46.2157 19.5532 46.6046 21.0465 45.9033 22.1983C45.1989 23.3533 43.6657 23.7351 42.4831 23.049Z" fill="white"/>
<path d="M72.6242 24.0021C68.0151 22.931 67.1959 22.1797 67.1959 20.6025C67.1959 19.1122 68.6366 18.1063 70.7818 18.1063C72.8601 18.1063 74.9192 18.8701 77.0803 20.4379C77.1473 20.4845 77.227 20.5031 77.3066 20.4907C77.3863 20.4783 77.4596 20.4348 77.5043 20.3696L79.7546 17.2805C79.8471 17.1532 79.8216 16.9793 79.6973 16.88C77.125 14.8713 74.2307 13.8933 70.8456 13.8933C65.8699 13.8933 62.3923 16.8024 62.3923 20.9626C62.3923 25.4271 65.3917 27.0043 70.5714 28.2244C74.9829 29.2148 75.7256 30.0438 75.7256 31.5247C75.7256 33.1671 74.2211 34.1885 71.7986 34.1885C69.1084 34.1885 66.9154 33.3068 64.4578 31.236C64.3972 31.1863 64.3144 31.1614 64.2379 31.1645C64.1582 31.1708 64.0817 31.208 64.0307 31.267L61.5062 34.1916C61.401 34.3127 61.4137 34.4959 61.5349 34.5983C64.3909 37.082 67.9035 38.3922 71.6934 38.3922C77.0548 38.3922 80.5196 35.539 80.5196 31.1211C80.5292 27.3955 78.2374 25.3309 72.6242 24.0021Z" fill="white"/>
<path d="M92.6609 19.575C90.3372 19.575 88.4311 20.466 86.8565 22.2946V20.2393C86.8565 20.0779 86.7226 19.9444 86.5537 19.9444H82.429C82.2633 19.9444 82.1262 20.0779 82.1262 20.2393V43.0897C82.1262 43.2511 82.2601 43.3846 82.429 43.3846H86.5569C86.7226 43.3846 86.8597 43.2511 86.8597 43.0897V35.8775C88.4311 37.5975 90.3404 38.4358 92.6641 38.4358C96.9832 38.4358 101.356 35.1976 101.356 29.0069C101.35 22.8131 96.98 19.575 92.6609 19.575ZM96.5529 29.0038C96.5529 32.155 94.5607 34.3562 91.7047 34.3562C88.8837 34.3562 86.7545 32.0557 86.7545 29.0038C86.7545 25.9519 88.8837 23.6514 91.7047 23.6514C94.5129 23.6545 96.5529 25.9023 96.5529 29.0038Z" fill="white"/>
<path d="M112.557 19.575C106.995 19.575 102.638 23.7476 102.638 29.0721C102.638 34.3407 106.966 38.4668 112.487 38.4668C118.069 38.4668 122.439 34.3097 122.439 29.0038C122.442 23.7166 118.1 19.575 112.557 19.575ZM112.557 34.3904C109.599 34.3904 107.368 32.0743 107.368 29.0069C107.368 25.924 109.52 23.6886 112.487 23.6886C115.464 23.6886 117.712 26.0047 117.712 29.0752C117.712 32.155 115.544 34.3904 112.557 34.3904Z" fill="white"/>
<path d="M134.318 19.9413H129.776V15.4209C129.776 15.2595 129.642 15.126 129.473 15.126H125.346C125.18 15.126 125.043 15.2595 125.043 15.4209V19.9444H123.057C122.891 19.9444 122.757 20.0779 122.757 20.2394V23.6948C122.757 23.8563 122.891 23.9898 123.057 23.9898H125.043V32.9281C125.043 36.5388 126.888 38.3706 130.528 38.3706C132.007 38.3706 133.238 38.0725 134.395 37.433C134.487 37.3833 134.548 37.284 134.548 37.1784V33.8875C134.548 33.785 134.494 33.6888 134.404 33.636C134.315 33.5801 134.204 33.577 134.111 33.6236C133.318 34.0116 132.546 34.1917 131.689 34.1917C130.366 34.1917 129.773 33.6049 129.773 32.2948V23.9867H134.315C134.481 23.9867 134.615 23.8532 134.615 23.6917V20.2363C134.621 20.0748 134.484 19.9413 134.318 19.9413Z" fill="white"/>
<path d="M150.141 19.9599V19.4041C150.141 17.7711 150.785 17.0415 152.226 17.0415C153.087 17.0415 153.778 17.2092 154.553 17.4606C154.648 17.4886 154.747 17.4762 154.824 17.4203C154.903 17.3644 154.948 17.2743 154.948 17.1812V13.794C154.948 13.6636 154.862 13.5488 154.734 13.5115C153.915 13.2755 152.87 13.0303 151.305 13.0303C147.492 13.0303 145.478 15.1197 145.478 19.0751V19.9257H143.495C143.33 19.9257 143.193 20.0592 143.193 20.2207V23.6917C143.193 23.8531 143.33 23.9866 143.495 23.9866H145.478V37.7744C145.478 37.9359 145.612 38.0694 145.778 38.0694H149.905C150.071 38.0694 150.208 37.9359 150.208 37.7744V23.9866H154.062L159.965 37.7713C159.296 39.2212 158.636 39.5068 157.737 39.5068C157.01 39.5068 156.245 39.2957 155.461 38.8797C155.388 38.8393 155.302 38.8331 155.222 38.858C155.142 38.8859 155.076 38.9418 155.044 39.0163L153.644 42.0061C153.577 42.1458 153.635 42.3135 153.775 42.3849C155.235 43.1548 156.555 43.4839 158.183 43.4839C161.231 43.4839 162.914 42.1023 164.399 38.383L171.558 20.3635C171.593 20.2735 171.584 20.171 171.526 20.0903C171.469 20.0096 171.376 19.963 171.278 19.963H166.981C166.853 19.963 166.735 20.0437 166.694 20.1617L162.292 32.4065L157.473 20.1493C157.428 20.0344 157.316 19.9599 157.192 19.9599H150.141Z" fill="white"/>
<path d="M140.968 19.9412H136.84C136.674 19.9412 136.537 20.0747 136.537 20.2361V37.7712C136.537 37.9327 136.674 38.0662 136.84 38.0662H140.968C141.133 38.0662 141.27 37.9327 141.27 37.7712V20.2361C141.27 20.0747 141.133 19.9412 140.968 19.9412Z" fill="white"/>
<path d="M138.928 11.9561C137.292 11.9561 135.966 13.2445 135.966 14.8372C135.966 16.4299 137.292 17.7214 138.928 17.7214C140.563 17.7214 141.886 16.4299 141.886 14.8372C141.886 13.2476 140.56 11.9561 138.928 11.9561Z" fill="white"/>
<path d="M175.08 25.5792C173.448 25.5792 172.176 24.3032 172.176 22.7509C172.176 21.1985 173.464 19.907 175.096 19.907C176.728 19.907 178 21.183 178 22.7353C178 24.2877 176.712 25.5792 175.08 25.5792ZM175.093 20.1895C173.604 20.1895 172.479 21.3413 172.479 22.7509C172.479 24.1604 173.598 25.2967 175.077 25.2967C176.566 25.2967 177.691 24.1448 177.691 22.7353C177.694 21.3258 176.575 20.1895 175.093 20.1895ZM175.737 23.0272L176.559 24.148H175.868L175.128 23.1203H174.494V24.148H173.914V21.1799H175.271C175.979 21.1799 176.444 21.5338 176.444 22.1268C176.444 22.6111 176.158 22.9092 175.737 23.0272ZM175.249 21.686H174.494V22.6267H175.249C175.625 22.6267 175.852 22.4466 175.852 22.1579C175.852 21.8505 175.625 21.686 175.249 21.686Z" fill="white"/>
</svg>
